# xmcd CD database file
#
# Track frame offsets:
#	183
#	11828
#	24540
#	39058
#	50045
#	61713
#	75915
#	90498
#	100790
#	112393
#	123285
#	135248
#	144015
#	160030
#	175685
#	184383
#	195520
#	206710
#	219008
#	234783
#	248808
#	266123
#	282008
#	290875
#
# Disc length: 4068 seconds
#
# Revision: 0
# Processed by: cddbd v1.4PL0 Copyright (c) Steve Scherf et al.
# Submitted via: CDex 1.50beta10
#
DISCID=3f0fe218
DTITLE=Ernie Wilkins - The swingin' Ernie wilkins orchestra (Here comes the swingin' Mr. Wilkins (1-12) - The big new band of the 60's (13-24))
DYEAR=1959
DGENRE=Jazz
TTITLE0=Broadway
TTITLE1=Surrey with the fringe on top
TTITLE2=Falling in lve with love
TTITLE3=The Continental
TTITLE4=Makin whoopee!
TTITLE5=Stompin' at the Savoy
TTITLE6=You're driving me crazy
TTITLE7=Baubles, bangles and beads
TTITLE8=Somebody loves me
TTITLE9=All of you
TTITLE10=Gone with the wind
TTITLE11=It don't mean a thing
TTITLE12=Ernie's blues
TTITLE13=Satin doll
TTITLE14=Fascinating rhythm
TTITLE15=Canadian sunset
TTITLE16=Very much in love
TTITLE17=Undecided
TTITLE18=Fresh flute
TTITLE19=I'll get by
TTITLE20=A swinging serenade
TTITLE21=Lover man
TTITLE22=Everything's coming up roses
TTITLE23=Speak low
EXTD=YEAR: 1959
EXTT0=
EXTT1=
EXTT2=
EXTT3=
EXTT4=
EXTT5=
EXTT6=
EXTT7=
EXTT8=
EXTT9=
EXTT10=
EXTT11=
EXTT12=
EXTT13=
EXTT14=
EXTT15=
EXTT16=
EXTT17=
EXTT18=
EXTT19=
EXTT20=
EXTT21=
EXTT22=
EXTT23=
PLAYORDER=
